HIERARCHY
ROOT Hips
{
  OFFSET -146.715 71.3901 1257.24
  CHANNELS 6 Xposition Yposition Zposition Zrotation Xrotation Yrotation
  JOINT Spine
  {
    OFFSET 4.5814e-05 8 8.64168e-05
    CHANNELS 6 Xposition Yposition Zposition Zrotation Xrotation Yrotation
    JOINT Spine1
    {
      OFFSET -0.000829003 7.99999 -0.000436283
      CHANNELS 6 Xposition Yposition Zposition Zrotation Xrotation Yrotation
      JOINT Spine2
      {
        OFFSET -0.000987645 8.00002 0.000848719
        CHANNELS 6 Xposition Yposition Zposition Zrotation Xrotation Yrotation
        JOINT Spine3
        {
          OFFSET 0 8 0
          CHANNELS 6 Xposition Yposition Zposition Zrotation Xrotation Yrotation
          JOINT Neck
          {
            OFFSET 3.186e-05 17 3.02275e-05
            CHANNELS 6 Xposition Yposition Zposition Zrotation Xrotation Yrotation
            JOINT Head
            {
              OFFSET -0.000891123 10.8 -0.00103542
              CHANNELS 6 Xposition Yposition Zposition Zrotation Xrotation Yrotation
              End Site
              {
                OFFSET 0 20.25 0
              }
            }
          }
          JOINT LeftShoulder
          {
            OFFSET 5 17 0
            CHANNELS 6 Xposition Yposition Zposition Zrotation Xrotation Yrotation
            JOINT LeftShoulder2
            {
              OFFSET 6.45 0 0
              CHANNELS 6 Xposition Yposition Zposition Zrotation Xrotation Yrotation
              JOINT LeftArm
              {
                OFFSET 6.45 0 1.53488e-05
                CHANNELS 6 Xposition Yposition Zposition Zrotation Xrotation Yrotation
                JOINT LeftForeArm
                {
                  OFFSET 0.00859192 -32.4039 -2.0017
                  CHANNELS 6 Xposition Yposition Zposition Zrotation Xrotation Yrotation
                  JOINT LeftHand
                  {
                    OFFSET -0.00151772 -25.6404 2.00743
                    CHANNELS 6 Xposition Yposition Zposition Zrotation Xrotation Yrotation
                    JOINT LeftHandThumb1
                    {
                      OFFSET -0.503302 -1.49874 2.65202
                      CHANNELS 6 Xposition Yposition Zposition Zrotation Xrotation Yrotation
                      JOINT LeftHandThumb2
                      {
                        OFFSET -8.39188e-05 -3.80016 3.69927
                        CHANNELS 6 Xposition Yposition Zposition Zrotation Xrotation Yrotation
                        JOINT LeftHandThumb3
                        {
                          OFFSET -0.00135552 -2.99904 2.69873
                          CHANNELS 6 Xposition Yposition Zposition Zrotation Xrotation Yrotation
                          End Site
                          {
                            OFFSET 0.000581606 -2.2953 1.80501
                          }
                        }
                      }
                    }
                    JOINT LeftHandIndex
                    {
                      OFFSET 0.00102161 -1.89996 1.59901
                      CHANNELS 6 Xposition Yposition Zposition Zrotation Xrotation Yrotation
                      JOINT LeftHandIndex1
                      {
                        OFFSET -0.00144998 -8.29948 1.9009
                        CHANNELS 6 Xposition Yposition Zposition Zrotation Xrotation Yrotation
                        JOINT LeftHandIndex2
                        {
                          OFFSET -0.00222436 -4.50023 0.000472785
                          CHANNELS 6 Xposition Yposition Zposition Zrotation Xrotation Yrotation
                          JOINT LeftHandIndex3
                          {
                            OFFSET 6.85064e-05 -3.40096 -7.86963e-05
                            CHANNELS 6 Xposition Yposition Zposition Zrotation Xrotation Yrotation
                            End Site
                            {
                              OFFSET -0.00070719 -2.6023 0.00116832
                            }
                          }
                        }
                      }
                    }
                    JOINT LeftHandMiddle
                    {
                      OFFSET -0.249819 -2.20014 0.399921
                      CHANNELS 6 Xposition Yposition Zposition Zrotation Xrotation Yrotation
                      JOINT LeftHandMiddle1
                      {
                        OFFSET -0.00263967 -8.29674 0.999759
                        CHANNELS 6 Xposition Yposition Zposition Zrotation Xrotation Yrotation
                        JOINT LeftHandMiddle2
                        {
                          OFFSET -0.000381615 -4.65028 0.000502278
                          CHANNELS 6 Xposition Yposition Zposition Zrotation Xrotation Yrotation
                          JOINT LeftHandMiddle3
                          {
                            OFFSET 0.00200539 -3.29978 0.00182622
                            CHANNELS 6 Xposition Yposition Zposition Zrotation Xrotation Yrotation
                            End Site
                            {
                              OFFSET -0.000100619 -2.69957 -0.000471587
                            }
                          }
                        }
                      }
                    }
                    JOINT LeftHandRing
                    {
                      OFFSET -0.503706 -2.14821 -0.796963
                      CHANNELS 6 Xposition Yposition Zposition Zrotation Xrotation Yrotation
                      JOINT LeftHandRing1
                      {
                        OFFSET 0.00208669 -7.75026 -0.201252
                        CHANNELS 6 Xposition Yposition Zposition Zrotation Xrotation Yrotation
                        JOINT LeftHandRing2
                        {
                          OFFSET 5.54985e-05 -3.79994 4.60054e-05
                          CHANNELS 6 Xposition Yposition Zposition Zrotation Xrotation Yrotation
                          JOINT LeftHandRing3
                          {
                            OFFSET 0.000132117 -3.40172 0.00197579
                            CHANNELS 6 Xposition Yposition Zposition Zrotation Xrotation Yrotation
                            End Site
                            {
                              OFFSET 0.000175104 -2.60113 -0.00259199
                            }
                          }
                        }
                      }
                    }
                    JOINT LeftHandPinky
                    {
                      OFFSET -0.749771 -1.75017 -1.84864
                      CHANNELS 6 Xposition Yposition Zposition Zrotation Xrotation Yrotation
                      JOINT LeftHandPinky1
                      {
                        OFFSET 0.00394751 -7.15076 -1.00241
                        CHANNELS 6 Xposition Yposition Zposition Zrotation Xrotation Yrotation
                        JOINT LeftHandPinky2
                        {
                          OFFSET -0.000887054 -3.00182 -0.000394507
                          CHANNELS 6 Xposition Yposition Zposition Zrotation Xrotation Yrotation
                          JOINT LeftHandPinky3
                          {
                            OFFSET 0.00354913 -2.34934 0.00225338
                            CHANNELS 6 Xposition Yposition Zposition Zrotation Xrotation Yrotation
                            End Site
                            {
                              OFFSET 0.00405238 -2.09858 0.00245223
                            }
                          }
                        }
                      }
                    }
                  }
                }
              }
            }
          }
          JOINT RightShoulder
          {
            OFFSET -4.99998 17 -6.07893e-05
            CHANNELS 6 Xposition Yposition Zposition Zrotation Xrotation Yrotation
            JOINT RightShoulder2
            {
              OFFSET -6.45 0 0
              CHANNELS 6 Xposition Yposition Zposition Zrotation Xrotation Yrotation
              JOINT RightArm
              {
                OFFSET -6.44999 4.67858e-05 0.000116892
                CHANNELS 6 Xposition Yposition Zposition Zrotation Xrotation Yrotation
                JOINT RightForeArm
                {
                  OFFSET -0.00329256 -32.3852 -1.98307
                  CHANNELS 6 Xposition Yposition Zposition Zrotation Xrotation Yrotation
                  JOINT RightHand
                  {
                    OFFSET 0.000498836 -25.6492 1.99813
                    CHANNELS 6 Xposition Yposition Zposition Zrotation Xrotation Yrotation
                    JOINT RightHandThumb1
                    {
                      OFFSET 0.503618 -1.49925 2.65207
                      CHANNELS 6 Xposition Yposition Zposition Zrotation Xrotation Yrotation
                      JOINT RightHandThumb2
                      {
                        OFFSET -9.62675e-05 -3.79997 3.69998
                        CHANNELS 6 Xposition Yposition Zposition Zrotation Xrotation Yrotation
                        JOINT RightHandThumb3
                        {
                          OFFSET 0.000585859 -3.01487 2.69646
                          CHANNELS 6 Xposition Yposition Zposition Zrotation Xrotation Yrotation
                          End Site
                          {
                            OFFSET -7.73313e-05 -2.29999 1.79997
                          }
                        }
                      }
                    }
                    JOINT RightHandIndex
                    {
                      OFFSET 0.0002114 -1.90144 1.59826
                      CHANNELS 6 Xposition Yposition Zposition Zrotation Xrotation Yrotation
                      JOINT RightHandIndex1
                      {
                        OFFSET 0.000548304 -8.29315 1.90323
                        CHANNELS 6 Xposition Yposition Zposition Zrotation Xrotation Yrotation
                        JOINT RightHandIndex2
                        {
                          OFFSET -0.000457573 -4.50051 0.00194377
                          CHANNELS 6 Xposition Yposition Zposition Zrotation Xrotation Yrotation
                          JOINT RightHandIndex3
                          {
                            OFFSET -0.00570412 -3.40139 0.00183558
                            CHANNELS 6 Xposition Yposition Zposition Zrotation Xrotation Yrotation
                            End Site
                            {
                              OFFSET -0.000820188 -2.59867 0.00229616
                            }
                          }
                        }
                      }
                    }
                    JOINT RightHandMiddle
                    {
                      OFFSET 0.247088 -2.20221 0.398797
                      CHANNELS 6 Xposition Yposition Zposition Zrotation Xrotation Yrotation
                      JOINT RightHandMiddle1
                      {
                        OFFSET 0.00221416 -8.30225 1.00142
                        CHANNELS 6 Xposition Yposition Zposition Zrotation Xrotation Yrotation
                        JOINT RightHandMiddle2
                        {
                          OFFSET 0.00249857 -4.65058 -0.00492085
                          CHANNELS 6 Xposition Yposition Zposition Zrotation Xrotation Yrotation
                          JOINT RightHandMiddle3
                          {
                            OFFSET -0.00555943 -3.28951 0.0202267
                            CHANNELS 6 Xposition Yposition Zposition Zrotation Xrotation Yrotation
                            End Site
                            {
                              OFFSET 0.000121334 -2.69926 0.00171263
                            }
                          }
                        }
                      }
                    }
                    JOINT RightHandRing
                    {
                      OFFSET 0.501401 -2.15046 -0.799614
                      CHANNELS 6 Xposition Yposition Zposition Zrotation Xrotation Yrotation
                      JOINT RightHandRing1
                      {
                        OFFSET 0.00271332 -7.74967 -0.199221
                        CHANNELS 6 Xposition Yposition Zposition Zrotation Xrotation Yrotation
                        JOINT RightHandRing2
                        {
                          OFFSET -0.00252076 -3.80171 -0.0016493
                          CHANNELS 6 Xposition Yposition Zposition Zrotation Xrotation Yrotation
                          JOINT RightHandRing3
                          {
                            OFFSET -0.000824515 -3.3986 -0.00112315
                            CHANNELS 6 Xposition Yposition Zposition Zrotation Xrotation Yrotation
                            End Site
                            {
                              OFFSET 0.00314114 -2.59817 -0.000351239
                            }
                          }
                        }
                      }
                    }
                    JOINT RightHandPinky
                    {
                      OFFSET 0.747099 -1.74976 -1.8515
                      CHANNELS 6 Xposition Yposition Zposition Zrotation Xrotation Yrotation
                      JOINT RightHandPinky1
                      {
                        OFFSET 0.00229033 -7.14984 -0.998979
                        CHANNELS 6 Xposition Yposition Zposition Zrotation Xrotation Yrotation
                        JOINT RightHandPinky2
                        {
                          OFFSET -0.00242768 -2.99834 -0.000398673
                          CHANNELS 6 Xposition Yposition Zposition Zrotation Xrotation Yrotation
                          JOINT RightHandPinky3
                          {
                            OFFSET -0.00386261 -2.34545 0.00910676
                            CHANNELS 6 Xposition Yposition Zposition Zrotation Xrotation Yrotation
                            End Site
                            {
                              OFFSET 0.00248993 -2.11252 -0.00215345
                            }
                          }
                        }
                      }
                    }
                  }
                }
              }
            }
          }
        }
      }
    }
  }
  JOINT LeftUpLeg
  {
    OFFSET 8.00002 0 2.37285e-05
    CHANNELS 6 Xposition Yposition Zposition Zrotation Xrotation Yrotation
    JOINT LeftLeg
    {
      OFFSET 0.000437443 -45.0001 -0.99998
      CHANNELS 6 Xposition Yposition Zposition Zrotation Xrotation Yrotation
      JOINT LeftFoot
      {
        OFFSET 0.000242074 -41 -2.00018
        CHANNELS 6 Xposition Yposition Zposition Zrotation Xrotation Yrotation
        JOINT LeftToeBase
        {
          OFFSET -0.00172008 -7.5 12.5014
          CHANNELS 6 Xposition Yposition Zposition Zrotation Xrotation Yrotation
          JOINT LeftFootToe
          {
            OFFSET 0 0 4
            CHANNELS 6 Xposition Yposition Zposition Zrotation Xrotation Yrotation
            End Site
            {
              OFFSET 0 0 0
            }
          }
        }
      }
    }
  }
  JOINT RightUpLeg
  {
    OFFSET -8.00002 0 -2.37285e-05
    CHANNELS 6 Xposition Yposition Zposition Zrotation Xrotation Yrotation
    JOINT RightLeg
    {
      OFFSET 0.000944316 -45.0002 -0.999016
      CHANNELS 6 Xposition Yposition Zposition Zrotation Xrotation Yrotation
      JOINT RightFoot
      {
        OFFSET 0.00140826 -41.0004 -2.00144
        CHANNELS 6 Xposition Yposition Zposition Zrotation Xrotation Yrotation
        JOINT RightToeBase
        {
          OFFSET -0.00117044 -7.49997 12.4986
          CHANNELS 6 Xposition Yposition Zposition Zrotation Xrotation Yrotation
          JOINT RightFootToe
          {
            OFFSET 0 0 4
            CHANNELS 6 Xposition Yposition Zposition Zrotation Xrotation Yrotation
            End Site
            {
              OFFSET 0 0 0
            }
          }
        }
      }
    }
  }
}
MOTION
Frames:	3
Frame Time:	0.0111111
-146.739 72.7247 1255.52 -3.47882 2.18807 -179.422 0 8 0 14.5381 14.7546 -12.4535 1.13687e-13 8 2.27374e-13 0.972355 8.94283 1.11716 0 8 -2.27374e-13 0.507326 4.47612 0.577241 1.13687e-13 8 -2.27374e-13 0.505687 4.46208 0.576112 -1.13687e-13 17 2.27374e-13 -3.78455 -4.78254 -1.6373 1.42109e-13 10.8 0 -9.14899 -11.0031 -4.35646 5 17 2.27374e-13 -12.2748 -1.34037 6.01101 6.45 -1.13687e-13 -2.27374e-13 -2.04574 0.12361 2.07002 6.45 0 -2.27374e-13 54.6079 -39.2177 16.0295 5.68434e-14 -32.4 -2 13.6355 -42.1047 0.682334 8.52651e-14 -25.65 2 35.6652 -58.334 -6.05561 -0.5 -1.5 2.65 24.8906 30.2175 40.0718 1.13687e-13 -3.8 3.7 -0.0809754 1.2235 0.00960168 0 -3 2.7 -0.00420066 0.513383 0.0175789 -1.13687e-13 -1.9 1.6 8.21504e-06 -2.70021e-06 4.26639e-06 1.13687e-13 -8.3 1.9 -1.8202 11.3255 0.217463 0 -4.5 2.84217e-14 -43.2157 0.0091559 -0.0360348 -2.84217e-14 -3.4 -1.13687e-13 -30.083 0.0161179 -0.0166095 -0.25 -2.2 0.4 8.21504e-06 -2.70021e-06 4.26639e-06 -1.13687e-13 -8.3 1 -6.50584 9.36699 0.714273 -2.27374e-13 -4.65 0 -77.5291 0.0246479 -0.0134453 -1.13687e-13 -3.3 -2.84217e-14 -90.0002 -9.62189e-05 3.94722e-05 -0.5 -2.15 -0.8 8.21504e-06 -2.70021e-06 4.26639e-06 -1.13687e-13 -7.75 -0.2 -16.0296 5.45348 1.24553 0 -3.8 -2.84217e-14 -56.8462 0.013261 -0.0161714 -1.13687e-13 -3.4 5.68434e-14 -89.9997 -0.0269085 0.0743743 -0.75 -1.75 -1.85 8.21504e-06 -2.70021e-06 4.26639e-06 0 -7.15 -1 -18.9394 3.37119 1.13056 0 -3 2.84217e-14 -50.4408 0.01427 -0.0202416 1.13687e-13 -2.35 0 -34.8199 0.016291 -0.00217336 -5 17 0 -3.46121 -2.53955 -6.48156 -6.45 -2.27374e-13 0 -1.7107 0.462803 -1.17869 -6.45 0 0 7.70019 -54.2906 38.762 0 -32.4 -2 -16.4129 -61.6532 -36.9144 0 -25.65 2 11.0312 1.19207 -16.1267 0.5 -1.5 2.65 -61.1715 42.5753 -49.553 4.54747e-13 -3.8 3.7 0.467621 -2.17401 -0.50345 2.27374e-13 -3 2.7 0.042377 25.0506 -0.0564694 5.68434e-14 -1.9 1.6 2.20695e-32 1.59028e-15 -7.95139e-16 0 -8.3 1.9 3.5465 15.4995 -0.614246 2.27374e-13 -4.5 -2.27374e-13 0.112404 0.463948 0.488773 0 -3.4 -1.7053e-13 0.00328497 0.455095 -0.499775 0.25 -2.2 0.4 2.20695e-32 1.59028e-15 -7.95139e-16 0 -8.3 1 10.7322 10.5395 -1.52289 -1.13687e-13 -4.65 -1.13687e-13 1.99018 9.89356 3.53593 0 -3.3 0 29.3286 0.0834432 0.055726 0.5 -2.15 -0.8 2.20695e-32 1.59028e-15 -7.95139e-16 0 -7.75 -0.2 30.011 15.237 -5.8997 0 -3.8 0 4.11488 17.4584 8.36478 -2.27374e-13 -3.4 -1.7053e-13 38.4829 -0.31271 -0.0727411 0.75 -1.75 -1.85 2.20695e-32 1.59028e-15 -7.95139e-16 -5.68434e-14 -7.15 -1 67.8277 3.70298 -8.40736 0 -3 5.68434e-14 0.014927 0.121091 -0.0385676 0 -2.35 5.68434e-14 0.086699 -0.114781 0.0281719 8 -1.42109e-14 -2.27374e-13 -11.7482 -53.7196 10.9656 0 -45 -1 41.0379 40.9826 -38.0789 2.84217e-14 -41 -2 -12.9536 3.42109 12.6659 0 -7.5 12.5 -2.85871e-05 -8.72744e-06 -0.132108 -1.13687e-13 2.68882e-17 4 -5.6192 -8.50327 38.934 -8 0 2.27374e-13 -40.3188 -43.7082 3.47158 -1.42109e-14 -45 -1 83.1259 20.1746 -48.3164 1.42109e-14 -41 -2 -42.8252 17.1338 23.3588 0 -7.5 12.5 -6.07776e-07 -26.9289 -1.70666e-06 0 7.10543e-15 4 5.0267 27.8615 17.9508 
-146.737 72.7304 1255.52 -3.46106 2.20039 -179.41 0 8 -2.27374e-13 14.4958 14.6796 -12.4437 8.52651e-14 8 2.27374e-13 0.984801 8.9244 1.11963 0 8 -2.27374e-13 0.512972 4.46654 0.579374 1.13687e-13 8 0 0.51192 4.45318 0.578325 -1.13687e-13 17 2.27374e-13 -3.80292 -4.70577 -1.6294 8.52651e-14 10.8 0 -9.1852 -10.8237 -4.3311 5 17 2.27374e-13 -12.2926 -1.36056 5.96584 6.45 -2.27374e-13 0 -2.03938 0.1233 2.07048 6.45 1.13687e-13 2.27374e-13 54.3095 -38.7746 15.481 0 -32.4 -2 13.4295 -42.3714 0.351269 1.27898e-13 -25.65 2 38.7641 -56.286 -3.07322 -0.5 -1.5 2.65 24.7979 29.5358 37.5616 2.27374e-13 -3.8 3.7 -0.0839837 1.42507 0.00889718 -1.13687e-13 -3 2.7 -0.0039434 0.951212 0.0167962 -1.13687e-13 -1.9 1.6 8.21504e-06 -2.70021e-06 4.26639e-06 1.13687e-13 -8.3 1.9 -1.69633 10.9361 0.189608 0 -4.5 2.84217e-14 -43.6263 0.0029389 -0.0165784 -2.84217e-14 -3.4 -1.13687e-13 -30.3347 0.00678565 -0.00827582 -0.25 -2.2 0.4 8.21504e-06 -2.70021e-06 4.26639e-06 0 -8.3 1 -6.17551 9.16288 0.665116 -3.41061e-13 -4.65 -2.84217e-14 -78.0253 0.0241147 -0.0146712 -1.13687e-13 -3.3 2.84217e-14 -90.0002 -9.47424e-05 3.87324e-05 -0.5 -2.15 -0.8 8.21504e-06 -2.70021e-06 4.26639e-06 -2.27374e-13 -7.75 -0.2 -15.3851 5.50173 1.20297 -5.68434e-14 -3.8 -2.84217e-14 -57.5586 0.0151419 -0.0208646 -1.13687e-13 -3.4 5.68434e-14 -89.9997 -0.0274395 0.0743677 -0.75 -1.75 -1.85 8.21504e-06 -2.70021e-06 4.26639e-06 -1.13687e-13 -7.15 -1 -18.218 3.52504 1.11501 1.13687e-13 -3 8.52651e-14 -51.3989 0.0140347 -0.0237257 1.13687e-13 -2.35 -5.68434e-14 -35.5012 0.0162139 -0.00222104 -5 17 2.27374e-13 -3.42603 -2.57858 -6.50436 -6.45 0 0 -1.70684 0.454987 -1.15585 -6.45 -1.13687e-13 0 7.35452 -54.0009 38.3904 0 -32.4 -2 -16.6203 -61.9244 -36.9381 0 -25.65 2 10.911 1.20072 -16.1132 0.5 -1.5 2.65 -61.1493 42.8453 -49.3402 2.27374e-13 -3.8 3.7 0.468317 -2.17418 -0.504077 -2.27374e-13 -3 2.7 0.0425347 25.1292 -0.056535 5.68434e-14 -1.9 1.6 2.20695e-31 3.18055e-15 -3.97569e-15 0 -8.3 1.9 3.62209 15.651 -0.632074 1.13687e-13 -4.5 -1.7053e-13 0.112353 0.463435 0.488214 -1.13687e-13 -3.4 -1.7053e-13 0.00327519 0.454538 -0.499154 0.25 -2.2 0.4 2.20695e-31 3.18055e-15 -3.97569e-15 0 -8.3 1 10.9073 10.6312 -1.55461 0 -4.65 -1.13687e-13 1.98989 9.89177 3.53366 1.13687e-13 -3.3 0 29.3194 0.084006 0.0552395 0.5 -2.15 -0.8 2.20695e-31 3.18055e-15 -3.97569e-15 0 -7.75 -0.2 30.2521 15.2314 -5.94958 2.27374e-13 -3.8 -5.68434e-14 4.1127 17.4708 8.37946 0 -3.4 -2.27374e-13 38.5197 -0.312828 -0.0732909 0.75 -1.75 -1.85 2.20695e-31 3.18055e-15 -3.97569e-15 0 -7.15 -1 67.9012 3.6367 -8.38214 0 -3 5.68434e-14 0.0197104 0.131709 -0.0385621 2.27374e-13 -2.35 0 0.117697 -0.114021 0.027656 8 -1.42109e-14 -2.27374e-13 -11.7174 -53.704 10.993 0 -45 -1 41.0348 40.9807 -38.0718 0 -41 -2 -12.9417 3.4206 12.6655 0 -7.5 12.5 -2.85871e-05 -8.72744e-06 -0.132108 -1.13687e-13 2.77556e-17 4 -5.63868 -8.49877 38.9329 -8 0 -2.27374e-13 -40.3149 -43.689 3.48568 0 -45 -1 83.1294 20.1758 -48.3289 0 -41 -2 -42.8103 17.1223 23.3724 0 -7.5 12.5 -6.05443e-07 -26.8591 -1.7056e-06 -1.13687e-13 0 4 5.01604 27.7909 17.9549 
-146.735 72.7347 1255.52 -3.44717 2.21668 -179.4 0 8 0 14.4506 14.5999 -12.4362 1.42109e-13 8 -2.27374e-13 0.998235 8.90492 1.11898 2.84217e-14 8 -2.27374e-13 0.518804 4.45624 0.580253 5.68434e-14 8 0 0.51836 4.44354 0.578897 -1.13687e-13 17 2.27374e-13 -3.82023 -4.62498 -1.61792 1.13687e-13 10.8 -4.54747e-13 -9.21834 -10.6356 -4.29628 5 17 0 -12.3175 -1.38063 5.91446 6.45 0 0 -2.03205 0.123144 2.07093 6.45 0 2.27374e-13 54.016 -38.319 14.9202 2.84217e-14 -32.4 -2 13.238 -42.605 -0.0110216 1.13687e-13 -25.65 2 41.4969 -54.0999 -0.403559 -0.5 -1.5 2.65 24.7142 28.7623 35.0542 2.27374e-13 -3.8 3.7 -0.0820844 1.60328 0.00815274 -2.27374e-13 -3 2.7 -0.00366044 1.48873 0.0155934 -1.13687e-13 -1.9 1.6 8.21504e-06 -2.70021e-06 4.26639e-06 1.13687e-13 -8.3 1.9 -1.55414 10.4765 0.158969 1.13687e-13 -4.5 0 -43.6427 -0.00297063 0.00916564 2.84217e-14 -3.4 -1.56319e-13 -30.3446 -0.00460721 0.00324619 -0.25 -2.2 0.4 8.21504e-06 -2.70021e-06 4.26639e-06 -1.13687e-13 -8.3 1 -5.74987 8.91326 0.601808 -3.41061e-13 -4.65 0 -78.41 0.0240049 -0.0162783 -2.27374e-13 -3.3 0 -90.0002 -9.30689e-05 3.80341e-05 -0.5 -2.15 -0.8 8.21504e-06 -2.70021e-06 4.26639e-06 -1.13687e-13 -7.75 -0.2 -14.4955 5.55489 1.13646 0 -3.8 0 -58.2587 0.0182619 -0.0282964 -2.27374e-13 -3.4 2.84217e-14 -89.9997 -0.0279734 0.0743474 -0.75 -1.75 -1.85 8.21504e-06 -2.70021e-06 4.26639e-06 1.13687e-13 -7.15 -1 -17.1717 3.70442 1.07658 5.68434e-14 -3 2.84217e-14 -52.4979 0.0136406 -0.0270888 2.27374e-13 -2.35 -8.52651e-14 -36.2913 0.0159718 -0.00227285 -5 17 0 -3.38314 -2.60995 -6.51081 -6.45 -2.27374e-13 -2.27374e-13 -1.70698 0.450223 -1.13595 -6.45 0 0 6.97785 -53.7112 38.0075 -5.68434e-14 -32.4 -2 -16.7754 -62.1886 -36.9392 0 -25.65 2 10.7877 1.20772 -16.0405 0.5 -1.5 2.65 -61.109 43.1481 -49.1501 2.27374e-13 -3.8 3.7 0.469013 -2.17436 -0.50464 0 -3 2.7 0.0426825 25.1983 -0.0565954 0 -1.9 1.6 -3.18055e-15 3.18055e-15 -3.57812e-15 5.68434e-14 -8.3 1.9 3.7034 15.8118 -0.651111 1.13687e-13 -4.5 -1.7053e-13 0.112362 0.462917 0.48765 0 -3.4 -2.27374e-13 0.00326532 0.453973 -0.498529 0.25 -2.2 0.4 -3.18055e-15 3.18055e-15 -3.57812e-15 0 -8.3 1 11.0925 10.7154 -1.58657 0 -4.65 -1.13687e-13 1.988 9.87029 3.51468 -1.13687e-13 -3.3 0 29.2492 0.0845934 0.0547509 0.5 -2.15 -0.8 -3.18055e-15 3.18055e-15 -3.57812e-15 0 -7.75 -0.2 30.4856 15.2174 -5.99551 2.27374e-13 -3.8 0 4.11278 17.4724 8.38019 0 -3.4 -2.84217e-13 38.5231 -0.312937 -0.0738246 0.75 -1.75 -1.85 -3.18055e-15 3.18055e-15 -3.57812e-15 5.68434e-14 -7.15 -1 67.9808 3.56315 -8.35373 0 -3 1.13687e-13 0.0264198 0.142882 -0.0385549 -2.27374e-13 -2.35 0 0.15225 -0.11365 0.027143 8 -2.84217e-14 -2.27374e-13 -11.6901 -53.6852 11.0127 0 -45 -1 41.0131 40.9693 -38.047 -2.84217e-14 -41 -2 -12.931 3.43803 12.668 0 -7.5 12.5 -2.85871e-05 -8.72744e-06 -0.132108 -1.7053e-13 2.77556e-17 4 -5.655 -8.49483 38.9321 -8 0 0 -40.3149 -43.6705 3.49818 0 -45 -1 83.1278 20.177 -48.3341 -1.42109e-14 -41 -2 -42.7937 17.1209 23.3877 -1.13687e-13 -7.5 12.5 -6.03712e-07 -26.8072 -1.70482e-06 0 0 4 5.00541 27.7344 17.9576 
